<mxfile host="app.diagrams.net" modified="2024-02-22T16:38:11.006Z" agent="Mozilla/5.0 (Windows NT 10.0; Win64; x64) AppleWebKit/537.36 (KHTML, like Gecko) Chrome/121.0.0.0 Safari/537.36" etag="gAn-qyRvyVcfRyogew9q" version="23.1.5" type="device">
  <diagram name="Seite-1" id="oWf4viCa2GLxDrAsqCFb">
    <mxGraphModel dx="1062" dy="636" grid="1" gridSize="10" guides="1" tooltips="1" connect="1" arrows="1" fold="1" page="1" pageScale="1" pageWidth="827" pageHeight="1169" math="0" shadow="0">
      <root>
        <mxCell id="0" />
        <mxCell id="1" parent="0" />
      </root>
    </mxGraphModel>
  </diagram>
</mxfile>
